# xmcd
#
# Track frame offsets: 
#        150
#        14809
#        33669
#        46804
#        59626
#        74587
#        93200
#        105483
#        116349
#        132926
#        143421
#        155497
#        178833
#        191426
#        214743
#        227248
#
# Disc length: 3203 seconds
#
# Revision: 0
# Processed by: cddbd v1.5.2PL0 Copyright (c) Steve Scherf et al.
# Submitted via: ExactAudioCopy v1.2
#
DISCID=e40c8110
DTITLE=Marvin Gaye - 50 [CD3]
DYEAR=2007
DGENRE=Soul
TTITLE0=Mercy Mercy Me (The Ecology)
TTITLE1=Abraham, Martin and John
TTITLE2=How Sweet It Is (To Be Loved By You)
TTITLE3=Too Busy Thinking About My Baby
TTITLE4=Marvin Gaye and Tammi Terrell - I'll Never Stop Loving You Baby
TTITLE5=I'll Be Around
TTITLE6=Marvin Gaye and Mary Wells - Loving You Is Sweeter Than Ever
TTITLE7=Once Upon A Time
TTITLE8=Seek And You Shall Find
TTITLE9=Some Kind Of Wonderful
TTITLE10=Come Get To This
TTITLE11=Ego Tripping Out
TTITLE12=Here, My Dear
TTITLE13=(I'm Afraid) The Masquerade Is Over
TTITLE14=Marvin Gaye and Tammi Terrell - You Ain't Livin' Till You're Lo
TTITLE14=vin'
TTITLE15=Diana Ross and Marvin Gaye - Stop, Look, Listen (To Your Heart)
EXTD=
EXTT0=
EXTT1=
EXTT2=
EXTT3=
EXTT4=
EXTT5=
EXTT6=
EXTT7=
EXTT8=
EXTT9=
EXTT10=
EXTT11=
EXTT12=
EXTT13=
EXTT14=
EXTT15=
PLAYORDER=
